<svg width="192" height="37" viewBox="0 0 192 37" fill="none" xmlns="http://www.w3.org/2000/svg">
<path d="M73 11.7C72.15 10.86 71.15 10.21 70.01 9.75005C68.87 9.28005 67.63 9.05005 66.29 9.05005H62.31H61.36H59.28V27.51H61.36H62.31H66.35C67.67 27.51 68.9 27.28 70.04 26.81C71.18 26.34 72.18 25.6901 73.02 24.86C73.86 24.02 74.52 23.04 75 21.92C75.47 20.79 75.71 19.58 75.71 18.28C75.71 16.96 75.47 15.74 75 14.63C74.51 13.51 73.85 12.54 73 11.7ZM71.78 21.64C71.24 22.62 70.5 23.38 69.54 23.92C68.58 24.47 67.47 24.74 66.2 24.74H62.3V11.82H66.2C67.45 11.82 68.55 12.09 69.51 12.64C70.47 13.19 71.22 13.94 71.77 14.91C72.31 15.88 72.59 16.99 72.59 18.26C72.59 19.54 72.32 20.67 71.78 21.64Z" fill="black"/>
<path d="M87.59 19.42H78.65V22.16H87.59V19.42Z" fill="black"/>
<path d="M101.42 19.02C102.3 18.58 102.98 17.96 103.46 17.17C103.94 16.38 104.19 15.45 104.19 14.37C104.19 13.35 103.95 12.44 103.46 11.64C102.98 10.84 102.29 10.21 101.42 9.74004C100.54 9.27004 99.5201 9.04004 98.3601 9.04004H94.4801H93.5301H91.4501V27.51H94.4801V19.68H95.2601L101.57 27.51H105.4L98.9201 19.65C99.8501 19.6 100.69 19.39 101.42 19.02ZM94.4801 11.69H98.2301C99.1601 11.69 99.8801 11.95 100.39 12.48C100.9 13.01 101.15 13.66 101.15 14.43C101.15 15.29 100.89 15.96 100.37 16.45C99.8501 16.93 99.1301 17.18 98.1901 17.18H94.4701V11.69H94.4801Z" fill="black"/>
<path d="M116.35 15.4601C115.35 14.8801 114.22 14.5901 112.97 14.5901C111.74 14.5901 110.62 14.8801 109.62 15.4701C108.62 16.0601 107.82 16.8501 107.23 17.8301C106.64 18.8201 106.35 19.9201 106.35 21.1501C106.35 22.3801 106.64 23.5001 107.23 24.5001C107.82 25.5001 108.61 26.3001 109.62 26.8901C110.62 27.4801 111.74 27.7701 112.97 27.7701C114.22 27.7701 115.34 27.4801 116.35 26.8901C117.35 26.3001 118.15 25.5101 118.74 24.5001C119.33 23.5001 119.62 22.3801 119.62 21.1501C119.62 19.9201 119.33 18.8101 118.74 17.8101C118.15 16.8301 117.35 16.0401 116.35 15.4601ZM116.18 23.1401C115.87 23.7201 115.44 24.1701 114.89 24.5001C114.34 24.8301 113.7 24.9901 112.98 24.9901C112.28 24.9901 111.65 24.8301 111.09 24.5001C110.54 24.1701 110.1 23.7201 109.8 23.1401C109.49 22.5601 109.34 21.9001 109.34 21.1601C109.34 20.4201 109.49 19.7701 109.8 19.2101C110.11 18.6501 110.54 18.2001 111.09 17.8801C111.64 17.5501 112.27 17.3901 112.98 17.3901C113.7 17.3901 114.33 17.5501 114.88 17.8801C115.42 18.2101 115.86 18.6501 116.17 19.2101C116.49 19.7701 116.64 20.4201 116.64 21.1601C116.64 21.9001 116.49 22.5601 116.18 23.1401Z" fill="black"/>
<path d="M132.17 15.47C131.25 14.88 130.21 14.59 129.07 14.59C128.12 14.59 127.27 14.8 126.51 15.21C126 15.49 125.56 15.84 125.19 16.27V8.53003H122.29V27.51H125.19V26.12C125.55 26.53 125.98 26.88 126.48 27.15C127.24 27.56 128.1 27.77 129.07 27.77C130.21 27.77 131.25 27.48 132.17 26.9C133.09 26.32 133.82 25.53 134.36 24.54C134.9 23.55 135.16 22.43 135.16 21.2C135.16 19.95 134.89 18.83 134.36 17.84C133.82 16.85 133.09 16.06 132.17 15.47ZM131.72 23.19C131.41 23.77 130.99 24.22 130.45 24.55C129.91 24.88 129.29 25.04 128.59 25.04C127.89 25.04 127.26 24.88 126.72 24.55C126.17 24.22 125.75 23.77 125.45 23.19C125.15 22.61 125 21.94 125 21.19C125 20.43 125.15 19.77 125.45 19.19C125.75 18.61 126.17 18.16 126.72 17.83C127.27 17.5 127.89 17.34 128.59 17.34C129.29 17.34 129.91 17.5 130.45 17.83C130.99 18.16 131.41 18.61 131.72 19.19C132.03 19.77 132.18 20.44 132.18 21.19C132.18 21.94 132.03 22.61 131.72 23.19Z" fill="black"/>
<path d="M147.03 15.4601C146.03 14.8801 144.9 14.5901 143.65 14.5901C142.42 14.5901 141.3 14.8801 140.3 15.4701C139.3 16.0601 138.5 16.8501 137.91 17.8301C137.32 18.8201 137.03 19.9201 137.03 21.1501C137.03 22.3801 137.32 23.5001 137.91 24.5001C138.5 25.5001 139.29 26.3001 140.3 26.8901C141.3 27.4801 142.42 27.7701 143.65 27.7701C144.9 27.7701 146.02 27.4801 147.03 26.8901C148.03 26.3001 148.83 25.5101 149.42 24.5001C150.01 23.5001 150.3 22.3801 150.3 21.1501C150.3 19.9201 150.01 18.8101 149.42 17.8101C148.83 16.8301 148.03 16.0401 147.03 15.4601ZM146.86 23.1401C146.55 23.7201 146.12 24.1701 145.57 24.5001C145.02 24.8301 144.38 24.9901 143.66 24.9901C142.96 24.9901 142.33 24.8301 141.77 24.5001C141.22 24.1701 140.78 23.7201 140.48 23.1401C140.17 22.5601 140.02 21.9001 140.02 21.1601C140.02 20.4201 140.17 19.7701 140.48 19.2101C140.79 18.6501 141.22 18.2001 141.77 17.8801C142.32 17.5501 142.95 17.3901 143.66 17.3901C144.38 17.3901 145.01 17.5501 145.56 17.8801C146.1 18.2101 146.54 18.6501 146.85 19.2101C147.17 19.7701 147.32 20.4201 147.32 21.1601C147.32 21.9001 147.17 22.5601 146.86 23.1401Z" fill="black"/>
<path d="M157.45 9.58008H154.55V14.8501H151.52V17.4901H154.55V27.5101H157.45V17.4901H160.49V14.8501H157.45V9.58008Z" fill="black"/>
<path d="M165.79 14.85H162.89V27.51H165.79V14.85Z" fill="black"/>
<path d="M164.34 9.05005C163.85 9.05005 163.44 9.22005 163.11 9.55005C162.78 9.88005 162.62 10.3 162.62 10.79C162.62 11.28 162.78 11.7 163.11 12.03C163.44 12.36 163.84 12.53 164.34 12.53C164.85 12.53 165.26 12.36 165.58 12.03C165.9 11.7 166.05 11.28 166.05 10.79C166.05 10.3 165.89 9.88005 165.58 9.55005C165.26 9.22005 164.85 9.05005 164.34 9.05005Z" fill="black"/>
<path d="M173.19 17.8701C173.74 17.5401 174.38 17.3801 175.1 17.3801C175.72 17.3801 176.28 17.4901 176.8 17.7101C177.32 17.9301 177.76 18.2601 178.13 18.7001L180.03 16.7701C179.43 16.0701 178.71 15.5301 177.85 15.1501C177 14.7701 176.08 14.5801 175.09 14.5801C173.84 14.5801 172.71 14.8701 171.7 15.4501C170.69 16.0301 169.89 16.8201 169.31 17.8101C168.73 18.8001 168.44 19.9201 168.44 21.1701C168.44 22.4001 168.73 23.5201 169.31 24.5201C169.89 25.5201 170.69 26.3101 171.7 26.8901C172.71 27.4701 173.84 27.7601 175.09 27.7601C176.07 27.7601 176.99 27.5701 177.85 27.1901C178.7 26.8101 179.43 26.2701 180.03 25.5701L178.13 23.6401C177.76 24.0801 177.32 24.4101 176.8 24.6301C176.28 24.8501 175.71 24.9601 175.1 24.9601C174.38 24.9601 173.74 24.8001 173.19 24.4701C172.64 24.1401 172.2 23.7001 171.9 23.1201C171.59 22.5501 171.44 21.8901 171.44 21.1501C171.44 20.3901 171.59 19.7301 171.9 19.1701C172.2 18.6401 172.63 18.2001 173.19 17.8701Z" fill="black"/>
<path d="M189.62 20.7201C189.12 20.4301 188.59 20.2001 188.04 20.0301C187.49 19.8601 186.96 19.7101 186.46 19.5701C185.96 19.4301 185.55 19.2601 185.23 19.0701C184.91 18.8801 184.76 18.6001 184.76 18.2501C184.76 17.9201 184.92 17.6601 185.23 17.4801C185.55 17.3001 186 17.2201 186.58 17.2201C187.2 17.2201 187.74 17.3301 188.22 17.5601C188.69 17.7901 189.12 18.1301 189.49 18.5901L191.34 16.7401C190.81 16.0201 190.16 15.4801 189.37 15.1201C188.59 14.7601 187.69 14.5801 186.67 14.5801C185.7 14.5801 184.87 14.7401 184.18 15.0501C183.49 15.3701 182.95 15.8201 182.57 16.4001C182.19 16.9801 182 17.6801 182 18.4801C182 19.2401 182.16 19.8501 182.47 20.3301C182.79 20.8001 183.2 21.1801 183.7 21.4501C184.2 21.7201 184.73 21.9401 185.28 22.1001C185.83 22.2601 186.36 22.4101 186.86 22.5601C187.36 22.7101 187.77 22.8901 188.09 23.1001C188.41 23.3101 188.56 23.6101 188.56 24.0001C188.56 24.3701 188.39 24.6501 188.06 24.8401C187.73 25.0301 187.23 25.1301 186.58 25.1301C185.86 25.1301 185.21 25.0001 184.64 24.7501C184.07 24.5001 183.56 24.1101 183.12 23.6001L181.27 25.4501C181.67 25.9401 182.15 26.3601 182.69 26.7001C183.23 27.0401 183.83 27.3101 184.48 27.4901C185.13 27.6701 185.81 27.7701 186.51 27.7701C187.99 27.7701 189.16 27.4101 190.02 26.6901C190.88 25.9701 191.31 24.9901 191.31 23.7601C191.31 22.9901 191.15 22.3601 190.84 21.8701C190.53 21.4001 190.12 21.0101 189.62 20.7201Z" fill="black"/>
<path d="M17.02 18.15C17.02 22.85 13.21 26.66 8.51 26.66C3.81 26.66 0 22.85 0 18.15C0 13.45 3.81 9.64001 8.51 9.64001C13.21 9.64001 17.02 13.45 17.02 18.15Z" fill="#FF3B00"/>
<path d="M24.8 36.3H8.44995V26.69H24.8C29.4 26.69 33.15 22.86 33.15 18.16C33.15 13.46 29.41 9.63 24.8 9.63H8.44995V0H24.8C34.7 0 42.76 8.14 42.76 18.15C42.76 28.16 34.7 36.3 24.8 36.3Z" fill="black"/>
</svg>
